<svg width="146" height="56" viewBox="0 0 146 56" fill="none" xmlns="http://www.w3.org/2000/svg">
<path d="M145.434 3.37106C145.434 1.42285 144.603 0.547251 142.676 0.525361C139.458 0.503471 136.262 0.459691 133.045 0.569141C132.06 0.612921 130.987 0.985052 130.111 1.46663C128.163 2.58302 126.302 3.85265 124.42 5.07849C112.008 13.1778 99.5747 21.2771 87.1631 29.3545C86.3969 29.858 85.6089 30.2958 84.6019 30.9306C84.6019 30.2301 84.6019 29.858 84.6019 29.464C84.6019 20.7736 84.6019 12.1052 84.6019 3.41484C84.6019 1.37907 83.792 0.547251 81.8 0.547251C74.5325 0.525361 67.2869 0.503471 60.0194 0.569141C59.0563 0.569141 58.0055 0.919381 57.1737 1.40096C53.2335 3.69942 49.3371 6.08543 45.4407 8.44955C36.6846 13.7032 27.9286 18.9568 19.1726 24.2323C18.1438 24.8452 17.0712 25.4581 15.7797 26.2243C15.7797 17.3588 15.7797 8.79979 15.7797 0C15.1011 0.350241 14.7508 0.503471 14.4225 0.722371C10.6355 2.93326 6.93609 5.23172 3.19289 7.44261C1.31035 8.559 0.478531 10.0694 0.500421 12.2584C0.566091 18.3876 0.587981 24.5168 0.500421 30.646C0.478531 32.6599 1.74815 33.6669 3.49936 33.6669C7.94303 33.6231 12.4086 33.645 16.8523 33.6669C18.2095 33.6669 19.3915 33.3166 20.5517 32.6161C25.4769 29.6172 30.446 26.684 35.3712 23.685C36.0498 23.2691 36.4657 23.3129 37.0349 23.882C39.793 26.7058 42.6168 29.4421 45.3531 32.2659C46.2944 33.2291 47.367 33.645 48.6585 33.645C53.0803 33.645 57.4802 33.645 61.902 33.645C62.296 33.645 62.69 33.5355 63.3029 33.448C57.6991 27.8441 52.2703 22.4154 46.7322 16.8772C54.4375 12.2584 61.8801 7.79285 69.5416 3.19594C69.5416 3.94021 69.5416 4.35612 69.5416 4.75014C69.5416 13.3529 69.5416 21.9776 69.5416 30.5804C69.5416 32.6161 70.5704 33.6669 72.6281 33.6669C79.5891 33.6669 86.572 33.7106 93.5331 33.6231C94.6276 33.6012 95.8753 33.2728 96.7947 32.6818C107.521 25.7865 118.203 18.7816 128.907 11.8425C129.258 11.6236 129.652 11.4704 130.243 11.1639C130.243 19.0443 130.243 26.6621 130.243 34.4111C130.659 34.2579 130.921 34.1922 131.118 34.0609C135.19 31.6092 139.261 29.1794 143.311 26.6839C144.821 25.7646 145.5 24.3417 145.5 22.5467C145.434 16.1548 145.434 9.76295 145.434 3.37106Z" fill="black"/>
<path d="M87.9951 49.2965C87.8638 47.1294 86.1563 45.9692 84.1206 46.7354C83.5077 46.9762 82.9604 47.3921 82.6102 47.5891C81.6689 47.1951 80.859 46.604 80.049 46.5821C79.2391 46.5602 78.4292 47.1294 77.5973 47.4577C77.5755 47.3264 77.5098 47.0418 77.466 46.801C76.5904 46.801 75.7805 46.801 74.9268 46.801C74.9268 49.6467 74.9268 52.4268 74.9268 55.2287C75.868 55.2287 76.7217 55.2287 77.7068 55.2287C77.7068 54.5501 77.6849 54.0029 77.7068 53.4556C77.7506 52.383 77.7725 51.2885 77.9476 50.2159C78.057 49.5154 78.5824 48.9463 79.3267 49.187C79.6331 49.2746 79.852 50.0189 79.8739 50.4786C79.9396 52.0546 79.8958 53.6526 79.8958 55.2068C80.9246 55.2068 81.8002 55.2068 82.7415 55.2068C82.7415 54.3093 82.7196 53.4775 82.7415 52.6457C82.7853 51.792 82.8072 50.8945 83.0042 50.0627C83.1793 49.3622 83.8141 48.9244 84.5146 49.1652C84.8429 49.2746 85.1056 49.9751 85.1056 50.4129C85.1713 51.989 85.1275 53.5869 85.1275 55.163C86.1563 55.163 87.0538 55.163 87.9732 55.163C87.9732 53.4337 87.9732 51.792 87.9732 50.1502C87.9951 49.8656 88.017 49.5811 87.9951 49.2965Z" fill="black"/>
<path d="M43.5578 49.6907C44.6741 48.443 44.7179 46.9544 44.1488 45.5097C43.6234 44.1744 42.4633 43.5177 41.0623 43.4739C39.3986 43.4083 37.7131 43.452 35.9619 43.452C35.9619 47.4579 35.9619 51.3325 35.9619 55.1632C36.9251 55.1632 37.8226 55.1632 38.7638 55.1632C38.7638 53.8498 38.7638 52.624 38.7638 51.42C39.7489 51.0698 40.2961 51.42 40.6902 52.2737C41.0623 53.1055 41.5001 53.8936 41.9817 54.6597C42.1349 54.9005 42.4195 55.207 42.6603 55.2289C43.514 55.2945 44.3677 55.2508 45.4184 55.2508C44.4771 53.5652 43.6453 52.0329 42.704 50.3474C42.9886 50.1504 43.317 49.9534 43.5578 49.6907ZM41.3688 48.1146C40.8872 49.231 39.7927 48.8589 38.7857 48.8808C38.7638 48.5524 38.7419 48.3335 38.7419 48.1146C38.7419 47.4141 38.7419 46.7355 38.7419 45.9694C39.6832 45.7943 40.6683 45.6192 41.2812 46.4072C41.5877 46.7793 41.5877 47.633 41.3688 48.1146Z" fill="black"/>
<path d="M120.151 48.3553C121.07 46.7792 121.924 45.1812 122.887 43.4519C122.099 43.4519 121.464 43.5176 120.873 43.43C120.041 43.3206 119.647 43.6927 119.319 44.3932C118.881 45.3563 118.29 46.2319 117.874 47.1951C117.546 47.9613 117.108 48.2458 116.211 47.9175C116.211 46.4727 116.211 45.0061 116.211 43.5395C115.204 43.5395 114.328 43.5395 113.387 43.5395C113.387 45.5534 113.387 47.4797 113.387 49.406C113.387 51.3542 113.387 53.3024 113.387 55.2069C114.437 55.2069 115.291 55.2069 116.232 55.2069C116.232 53.6308 116.232 52.1204 116.232 50.5881C117.174 50.2597 117.59 50.6099 117.874 51.3323C118.071 51.8358 118.378 52.2955 118.618 52.7771C119.932 55.3382 119.932 55.3382 122.734 55.2506C122.799 55.2506 122.843 55.2069 122.996 55.1193C122.055 53.3681 121.136 51.6169 120.129 49.9095C119.8 49.3184 119.822 48.9025 120.151 48.3553Z" fill="black"/>
<path d="M27.4254 46.6697C26.4184 46.5384 25.3677 46.823 24.2513 46.9543C24.2513 45.9474 24.2513 44.7434 24.2513 43.5176C23.2663 43.5176 22.3907 43.5176 21.4932 43.5176C21.4932 47.4578 21.4932 51.2885 21.4932 55.3601C22.4563 55.0098 23.507 55.7322 24.2732 54.7472C26.4403 55.776 28.1915 55.6009 29.3298 54.2218C30.7526 52.4487 30.8621 49.5592 29.4174 47.8518C28.9358 47.3046 28.1258 46.7792 27.4254 46.6697ZM25.8712 53.0835C24.8423 53.0835 24.1856 52.2517 24.1856 50.9821C24.1856 49.7562 24.908 48.8806 25.915 48.9025C26.9657 48.9244 27.5786 49.7125 27.5786 51.004C27.5786 52.2955 26.9219 53.1054 25.8712 53.0835Z" fill="black"/>
<path d="M62.909 46.5386C62.0115 46.5823 61.1141 47.0201 60.1947 47.3047C60.1947 46.1883 60.1947 44.853 60.1947 43.4958C59.2096 43.4958 58.334 43.4958 57.4365 43.4958C57.4365 47.4361 57.4365 51.3106 57.4365 55.1851C58.3778 55.1851 59.2315 55.1851 60.1728 55.1851C60.1947 54.9224 60.2166 54.7254 60.2166 54.5065C60.2166 53.2588 60.1947 52.033 60.2384 50.7852C60.2822 49.7126 61.0484 49.0121 61.9678 49.0997C63.106 49.1873 62.8215 50.0847 62.8215 50.7633C62.8434 52.2519 62.8215 53.7185 62.8215 55.1851C63.8503 55.1851 64.704 55.1851 65.6453 55.1851C65.6453 53.0618 65.7328 51.0041 65.6234 48.9246C65.5358 47.4798 64.3976 46.4729 62.909 46.5386Z" fill="black"/>
<path d="M15.123 46.4949C12.3868 46.4949 10.2634 48.465 10.2853 51.0261C10.3072 53.5654 12.3649 55.4698 15.0792 55.4698C17.8593 55.4698 19.9388 53.5216 19.9169 50.9604C19.895 48.465 17.7936 46.5168 15.123 46.4949ZM15.1011 53.0838C13.9191 53.0838 13.1529 52.3176 13.131 51.1137C13.1091 49.7784 13.8972 48.9028 15.1011 48.9028C16.2613 48.9028 17.0712 49.7565 17.0712 51.0042C17.0931 52.2738 16.327 53.0838 15.1011 53.0838Z" fill="black"/>
<path d="M51.0001 46.4949C48.2638 46.4949 46.1405 48.4869 46.1843 51.0261C46.2061 53.5654 48.2638 55.4479 51.0001 55.4698C53.7363 55.4698 55.794 53.5872 55.8159 51.048C55.8597 48.5306 53.7363 46.5168 51.0001 46.4949ZM50.9344 53.0838C49.7742 53.0619 49.03 52.2738 49.03 51.048C49.03 49.7346 49.8399 48.8809 51.0657 48.9028C52.204 48.9247 52.9921 49.8003 52.9702 51.0699C52.9702 52.3395 52.1821 53.1057 50.9344 53.0838Z" fill="black"/>
<path d="M105.703 46.8011C104.368 46.2101 103.076 46.4071 102.004 47.4797C101.938 47.5454 101.829 47.5673 101.697 47.6111C101.632 47.3046 101.588 47.02 101.522 46.8011C100.647 46.8011 99.8148 46.8011 99.0049 46.8011C99.0049 49.6468 99.0049 52.4488 99.0049 55.2069C99.9462 55.2069 100.8 55.2069 101.763 55.2069C101.763 54.5502 101.741 53.9373 101.763 53.3244C101.807 52.3393 101.785 51.3761 101.916 50.413C102.048 49.4936 102.682 49.012 103.646 49.1434C104.587 49.2966 104.368 50.0846 104.39 50.6975C104.412 52.208 104.39 53.7184 104.39 55.2069C105.441 55.2069 106.294 55.2069 107.236 55.2069C107.236 53.3681 107.236 51.5731 107.236 49.8001C107.279 48.5085 106.973 47.3484 105.703 46.8011Z" fill="black"/>
<path d="M94.0141 46.5604C92.4599 46.2977 91.0152 46.7136 89.6361 47.5892C89.9426 48.2678 90.249 48.8807 90.5555 49.5593C93.1604 48.421 93.8828 48.5086 94.0141 49.822C92.9196 50.0846 91.8251 50.2817 90.7525 50.61C89.6799 50.9384 89.0889 51.7264 89.0889 52.8866C89.0889 53.9811 89.855 54.8786 90.9714 55.2726C92.241 55.7323 93.2917 55.2507 94.2549 54.4626C94.4738 55.3383 95.1524 55.4696 96.9255 55.0756C96.9255 53.39 96.9912 51.6826 96.9036 49.9752C96.8379 48.0927 95.8091 46.8887 94.0141 46.5604ZM92.6788 53.2587C92.4162 53.2587 91.9346 52.7552 91.9783 52.5801C92.2629 51.5294 93.1823 51.7045 94.1236 51.5732C94.0579 52.6896 93.642 53.2806 92.6788 53.2587Z" fill="black"/>
<path d="M136.787 49.975C136.612 48.0706 135.627 46.8666 133.832 46.5821C132.278 46.3194 130.855 46.7353 129.476 47.6109C129.673 48.0049 129.826 48.3333 129.979 48.6397C130.133 48.9462 130.286 49.2527 130.417 49.5591C132.956 48.399 133.547 48.4646 133.898 49.7561C132.606 50.1064 131.358 50.3253 130.22 50.8069C128.972 51.3322 128.6 52.7332 129.235 53.9371C130.133 55.6883 132.168 55.9291 134.117 54.4844C134.182 54.7471 134.248 54.9879 134.292 55.1411C135.189 55.1411 135.977 55.1411 136.809 55.1411C136.809 53.565 136.809 52.0765 136.809 50.588C136.787 50.3909 136.809 50.172 136.787 49.975ZM132.606 53.2585C132.322 53.2148 131.796 52.6894 131.84 52.5581C132.19 51.5949 133.066 51.6825 133.876 51.6387C133.876 52.7332 133.416 53.368 132.606 53.2585Z" fill="black"/>
<path d="M70.3946 48.2895C70.3508 47.6985 70.3071 47.2388 70.2633 46.7791C69.3658 46.7791 68.5559 46.7791 67.7021 46.7791C67.7021 49.6248 67.7021 52.4049 67.7021 55.2068C68.6434 55.2068 69.4971 55.2068 70.4822 55.2068C70.4822 54.2436 70.4822 53.4118 70.4822 52.58C70.4822 50.0189 70.8324 49.6029 73.2841 49.2308C73.2841 48.3552 73.2841 47.4577 73.2841 46.5602C71.8831 46.3851 71.1827 47.3264 70.3946 48.2895Z" fill="black"/>
<path d="M124.639 55.1631C125.602 55.1631 126.477 55.1631 127.353 55.1631C127.353 52.3174 127.353 49.5592 127.353 46.7573C126.434 46.7573 125.58 46.7573 124.639 46.7573C124.639 49.6468 124.639 52.4268 124.639 55.1631Z" fill="black"/>
<path d="M124.639 43.5393C124.639 44.2836 124.639 44.9184 124.639 45.597C125.558 45.597 126.412 45.597 127.309 45.597C127.309 44.8089 127.309 44.1741 127.309 43.5393C126.368 43.5393 125.492 43.5393 124.639 43.5393Z" fill="black"/>
<path d="M7.48292 49.0121C8.64309 48.2022 9.01522 47.042 8.70876 45.7505C8.38041 44.3495 7.24213 43.649 5.90684 43.5615C4.11186 43.4301 2.31687 43.5396 0.5 43.5396C0.5 47.4579 0.5 51.3105 0.5 55.2945C0.915911 55.2945 1.20048 55.2945 1.48505 55.2945C2.75467 55.2945 4.0243 55.3383 5.31581 55.2726C7.22024 55.207 8.81821 54.1562 9.16845 52.821C9.58436 51.2011 9.12467 50.1723 7.48292 49.0121ZM3.32381 45.6629C3.32381 45.6629 5.7755 45.6629 5.84117 46.4072C5.86306 46.5385 5.86306 46.6699 5.86306 46.7793C5.86306 46.8669 5.86306 46.9544 5.86306 47.042C5.90684 48.6181 3.63027 48.3335 3.3457 48.3116C3.32381 48.3116 3.32381 48.3116 3.32381 48.3116C3.32381 47.2609 3.32381 46.6261 3.32381 45.6629ZM6.27897 51.7265C6.27897 51.7483 6.27897 51.7702 6.27897 51.7702C6.27897 51.7921 6.27897 51.8359 6.25708 51.8578C6.25708 51.8797 6.25708 51.8797 6.25708 51.9016C6.23519 51.9891 6.2133 52.0767 6.19141 52.1424C6.12574 52.2737 6.03818 52.405 5.95062 52.4926C5.79739 52.6458 5.64416 52.7553 5.44715 52.7991C4.57155 53.1712 3.3457 52.9961 3.3457 52.9961V52.8866C3.3457 52.7991 3.3457 52.7115 3.3457 52.6021C3.3457 51.7921 3.3457 51.0698 3.3457 50.0847V50.0628C3.58649 50.0628 6.16952 50.1066 6.25708 50.8727C6.27897 51.0479 6.27897 51.1792 6.27897 51.3105C6.30086 51.4419 6.30086 51.5732 6.27897 51.7265Z" fill="black"/>
</svg>
